<svg width="20" height="20" viewBox="0 0 20 20" fill="none" xmlns="http://www.w3.org/2000/svg">
<g id="Frame">
<g id="SVGRepo_iconCarrier">
<path id="Vector" d="M3.19998 0.799805V2.3998H1.59998V19.1998H18.4V5.5998H12V2.3998H10.4V0.799805H3.19998ZM3.99998 1.5998H9.59998V3.1998H11.2V18.3998H7.59998V15.5998H5.99998V18.3998H2.39998V3.1998H3.99998V1.5998ZM3.99998 3.9998V4.7998H4.79998V3.9998H3.99998ZM5.59998 3.9998V4.7998H6.39998V3.9998H5.59998ZM7.19998 3.9998V4.7998H7.99998V3.9998H7.19998ZM8.79998 3.9998V4.7998H9.59998V3.9998H8.79998ZM3.99998 5.9998V7.5998H4.79998V5.9998H3.99998ZM5.59998 5.9998V7.5998H6.39998V5.9998H5.59998ZM7.19998 5.9998V7.5998H7.99998V5.9998H7.19998ZM8.79998 5.9998V7.5998H9.59998V5.9998H8.79998ZM12 6.3998H17.6V18.3998H12V6.3998ZM12.8 7.1998V7.9998H13.6V7.1998H12.8ZM14.4 7.1998V7.9998H15.2V7.1998H14.4ZM16 7.1998V7.9998H16.8V7.1998H16ZM3.99998 8.3998V9.9998H4.79998V8.3998H3.99998ZM5.59998 8.3998V9.9998H6.39998V8.3998H5.59998ZM7.19998 8.3998V9.9998H7.99998V8.3998H7.19998ZM8.79998 8.3998V9.9998H9.59998V8.3998H8.79998ZM12.8 8.7998V9.5998H13.6V8.7998H12.8ZM14.4 8.7998V9.5998H15.2V8.7998H14.4ZM16 8.7998V9.5998H16.8V8.7998H16ZM12.8 10.3998V11.1998H13.6V10.3998H12.8ZM14.4 10.3998V11.1998H15.2V10.3998H14.4ZM16 10.3998V11.1998H16.8V10.3998H16ZM3.99998 10.7998V12.3998H4.79998V10.7998H3.99998ZM5.59998 10.7998V12.3998H6.39998V10.7998H5.59998ZM7.19998 10.7998V12.3998H7.99998V10.7998H7.19998ZM8.79998 10.7998V12.3998H9.59998V10.7998H8.79998ZM12.8 11.9998V12.7998H13.6V11.9998H12.8ZM14.4 11.9998V12.7998H15.2V11.9998H14.4ZM16 11.9998V12.7998H16.8V11.9998H16ZM3.99998 13.1998V14.7998H4.79998V13.1998H3.99998ZM5.59998 13.1998V14.7998H6.39998V13.1998H5.59998ZM7.19998 13.1998V14.7998H7.99998V13.1998H7.19998ZM8.79998 13.1998V14.7998H9.59998V13.1998H8.79998ZM12.8 13.5998V14.3998H13.6V13.5998H12.8ZM14.4 13.5998V14.3998H15.2V13.5998H14.4ZM16 13.5998V14.3998H16.8V13.5998H16ZM12.8 15.1998V15.9998H13.6V15.1998H12.8ZM14.4 15.1998V15.9998H15.2V15.1998H14.4ZM16 15.1998V15.9998H16.8V15.1998H16ZM3.99998 15.5998V17.5998H4.79998V15.5998H3.99998ZM8.79998 15.5998V17.5998H9.59998V15.5998H8.79998ZM12.8 16.7998V17.5998H13.6V16.7998H12.8ZM14.4 16.7998V17.5998H15.2V16.7998H14.4ZM16 16.7998V17.5998H16.8V16.7998H16Z" fill="#42C940"/>
</g>
</g>
</svg>
