<svg width="20" height="20" viewBox="0 0 20 20" fill="none" xmlns="http://www.w3.org/2000/svg">
<g id="Layer_1">
<g id="SVGRepo_iconCarrier">
<g id="Group">
<g id="Group_2">
<path id="Vector" d="M4.21441 3.28477L4.84859 2.65059H16.5061C16.8383 2.65059 17.1085 2.38035 17.1085 2.04816V0.602422C17.1085 0.270234 16.8382 0 16.5061 0H3.49402C3.16184 0 2.8916 0.270234 2.8916 0.602422V2.0482C2.8916 2.38039 3.16184 2.65063 3.49402 2.65063H3.82625L3.7032 2.77367C3.17984 3.29703 2.8916 3.99297 2.8916 4.73309V8.55426V13.3735V14.3374C2.8916 14.537 3.05344 14.6988 3.25305 14.6988C3.45266 14.6988 3.61449 14.537 3.61449 14.3374V13.735H6.43863C7.18734 15.1822 8.50387 16.1446 10 16.1446C11.4962 16.1446 12.8127 15.1822 13.5614 13.735H16.3856V17.7109C16.3856 18.5745 15.6829 19.2771 14.8193 19.2771H5.18078C4.31715 19.2771 3.61453 18.5745 3.61453 17.7109V15.7834C3.61453 15.5837 3.4527 15.4219 3.25309 15.4219C3.05348 15.4219 2.89164 15.5837 2.89164 15.7834V17.7109C2.89164 18.9731 3.91859 20 5.18078 20H14.8193C16.0816 20 17.1085 18.973 17.1085 17.7109V13.3735V8.55422V4.73305C17.1085 4.31008 17.0095 3.88598 16.8223 3.50668C16.734 3.32766 16.5171 3.25418 16.3382 3.34254C16.1592 3.43086 16.0857 3.64766 16.1741 3.82664C16.3124 4.10699 16.3856 4.42043 16.3856 4.73305V8.19277H13.5614C12.8127 6.74555 11.4962 5.78312 10 5.78312C8.50391 5.78312 7.18738 6.74555 6.43863 8.19277H3.61449V4.73305C3.61449 4.18598 3.82754 3.67168 4.21441 3.28477ZM3.61449 1.9277V0.722891H16.3856V1.9277H3.61449ZM13.873 8.91566H16.3856V13.012H13.873C14.0941 12.3834 14.2169 11.691 14.2169 10.9638C14.2169 10.2367 14.0941 9.54426 13.873 8.91566ZM10 6.50602C11.9266 6.50602 13.494 8.50578 13.494 10.9638C13.494 13.4219 11.9266 15.4217 10 15.4217C8.07344 15.4217 6.50605 13.4219 6.50605 10.9639C6.50605 8.50582 8.07344 6.50602 10 6.50602ZM6.12703 8.91566C5.90598 9.54426 5.78316 10.2367 5.78316 10.9639C5.78316 11.691 5.90598 12.3835 6.12703 13.0121H3.61449V8.91566H6.12703Z" fill="#5C6972"/>
</g>
</g>
</g>
</g>
</svg>
