<svg width="20" height="20" viewBox="0 0 20 20" fill="none" xmlns="http://www.w3.org/2000/svg">
<g id="Frame" clip-path="url(#clip0_66_4319)">
<g id="SVGRepo_iconCarrier">
<g id="Vector">
<path d="M3.11255 15.0004H8.52505V9.57539H3.11255V15.0004ZM4.67505 11.1379H6.96255V13.4254H4.67505V11.1379ZM13.8375 9.57539C13.032 9.57539 12.2594 9.89541 11.6897 10.4651C11.1201 11.0347 10.8 11.8073 10.8 12.6129V16.8629H12.375V12.6129C12.3562 12.4086 12.3801 12.2027 12.4454 12.0082C12.5106 11.8137 12.6157 11.635 12.7539 11.4834C12.8921 11.3318 13.0605 11.2107 13.2481 11.1279C13.4358 11.045 13.6387 11.0022 13.8438 11.0022C14.0489 11.0022 14.2518 11.045 14.4395 11.1279C14.6271 11.2107 14.7955 11.3318 14.9337 11.4834C15.0719 11.635 15.177 11.8137 15.2422 12.0082C15.3075 12.2027 15.3314 12.4086 15.3125 12.6129V16.8629H16.875V12.6129C16.875 11.8073 16.555 11.0347 15.9854 10.4651C15.4157 9.89541 14.6431 9.57539 13.8375 9.57539ZM3.11255 6.33789H16.875V7.96289H3.11255V6.33789Z" fill="#878E87"/>
<path d="M3.11255 15.0004H8.52505V9.57539H3.11255V15.0004ZM4.67505 11.1379H6.96255V13.4254H4.67505V11.1379ZM13.8375 9.57539C13.032 9.57539 12.2594 9.89541 11.6897 10.4651C11.1201 11.0347 10.8 11.8073 10.8 12.6129V16.8629H12.375V12.6129C12.3562 12.4086 12.3801 12.2027 12.4454 12.0082C12.5106 11.8137 12.6157 11.635 12.7539 11.4834C12.8921 11.3318 13.0605 11.2107 13.2481 11.1279C13.4358 11.045 13.6387 11.0022 13.8438 11.0022C14.0489 11.0022 14.2518 11.045 14.4395 11.1279C14.6271 11.2107 14.7955 11.3318 14.9337 11.4834C15.0719 11.635 15.177 11.8137 15.2422 12.0082C15.3075 12.2027 15.3314 12.4086 15.3125 12.6129V16.8629H16.875V12.6129C16.875 11.8073 16.555 11.0347 15.9854 10.4651C15.4157 9.89541 14.6431 9.57539 13.8375 9.57539ZM3.11255 6.33789H16.875V7.96289H3.11255V6.33789Z" stroke="black"/>
</g>
<g id="Vector_2">
<path d="M17.65 3.1377H2.35C1.72674 3.1377 1.12901 3.38528 0.688299 3.82599C0.247589 4.2667 0 4.86444 0 5.4877V16.8627H1.5625V5.4877C1.5625 5.27884 1.64547 5.07853 1.79315 4.93085C1.94084 4.78316 2.14114 4.7002 2.35 4.7002H17.65C17.8589 4.7002 18.0592 4.78316 18.2068 4.93085C18.3545 5.07853 18.4375 5.27884 18.4375 5.4877V16.8627H20V5.4877C20 4.86444 19.7524 4.2667 19.3117 3.82599C18.871 3.38528 18.2733 3.1377 17.65 3.1377Z" fill="#878E87"/>
<path d="M17.65 3.1377H2.35C1.72674 3.1377 1.12901 3.38528 0.688299 3.82599C0.247589 4.2667 0 4.86444 0 5.4877V16.8627H1.5625V5.4877C1.5625 5.27884 1.64547 5.07853 1.79315 4.93085C1.94084 4.78316 2.14114 4.7002 2.35 4.7002H17.65C17.8589 4.7002 18.0592 4.78316 18.2068 4.93085C18.3545 5.07853 18.4375 5.27884 18.4375 5.4877V16.8627H20V5.4877C20 4.86444 19.7524 4.2667 19.3117 3.82599C18.871 3.38528 18.2733 3.1377 17.65 3.1377Z" stroke="black"/>
</g>
</g>
</g>
<defs>
<clipPath id="clip0_66_4319">
<rect width="20" height="20" fill="white"/>
</clipPath>
</defs>
</svg>
