<svg width="20" height="20" viewBox="0 0 20 20" fill="none" xmlns="http://www.w3.org/2000/svg">
<g id="Frame">
<g id="SVGRepo_iconCarrier">
<path id="Vector" d="M11.6667 10.2085C11.0486 10.2085 10.4445 10.0252 9.93056 9.68183C9.41664 9.3385 9.01614 8.85041 8.77964 8.27938C8.54306 7.70836 8.48123 7.08003 8.60181 6.47384C8.72239 5.86765 9.01998 5.31083 9.45706 4.87379C9.89406 4.43675 10.4509 4.13912 11.0571 4.01855C11.6632 3.89796 12.2916 3.95985 12.8626 4.19637C13.4336 4.4329 13.9217 4.83344 14.2651 5.34734C14.6085 5.86125 14.7917 6.46543 14.7917 7.0835C14.7917 7.9123 14.4625 8.70716 13.8765 9.29325C13.2904 9.87925 12.4956 10.2085 11.6667 10.2085ZM11.6667 5.2085C11.2959 5.2085 10.9334 5.31846 10.6251 5.52449C10.3167 5.73052 10.0764 6.02336 9.93448 6.36596C9.79256 6.70858 9.75539 7.08558 9.82773 7.44929C9.90014 7.81301 10.0786 8.1471 10.3409 8.40933C10.6031 8.67158 10.9372 8.85016 11.3009 8.9225C11.6646 8.99483 12.0416 8.95766 12.3842 8.81575C12.7269 8.67383 13.0197 8.4335 13.2257 8.12519C13.4317 7.81685 13.5417 7.45434 13.5417 7.0835C13.5417 6.58621 13.3441 6.10931 12.9926 5.75767C12.6409 5.40604 12.164 5.2085 11.6667 5.2085Z" fill="#878E87"/>
<path id="Vector_2" d="M17.5 16.0418C17.335 16.0397 17.1772 15.9732 17.0605 15.8564C16.9437 15.7397 16.8772 15.5819 16.875 15.4168C16.875 13.7918 15.9917 12.7085 11.6667 12.7085C7.34171 12.7085 6.45837 13.7918 6.45837 15.4168C6.45837 15.5826 6.39252 15.7416 6.27532 15.8587C6.15811 15.976 5.99913 16.0418 5.83337 16.0418C5.66762 16.0418 5.50864 15.976 5.39143 15.8587C5.27422 15.7416 5.20837 15.5826 5.20837 15.4168C5.20837 11.4585 9.73337 11.4585 11.6667 11.4585C13.6 11.4585 18.125 11.4585 18.125 15.4168C18.1229 15.5819 18.0564 15.7397 17.9396 15.8564C17.8229 15.9732 17.6651 16.0397 17.5 16.0418Z" fill="#878E87"/>
<path id="Vector_3" d="M6.93327 10.8837H6.6666C6.00356 10.8196 5.39314 10.4948 4.96962 9.98064C4.5461 9.46647 4.34417 8.80514 4.40827 8.14206C4.47237 7.47902 4.79723 6.86861 5.31138 6.44508C5.82555 6.02156 6.48689 5.81964 7.14993 5.88373C7.23495 5.88739 7.31833 5.90836 7.39495 5.94538C7.47158 5.98239 7.53983 6.03466 7.59554 6.09898C7.65125 6.16331 7.69324 6.23833 7.71893 6.31946C7.74462 6.40058 7.75348 6.4861 7.74496 6.57076C7.73643 6.65543 7.71071 6.73746 7.66937 6.81184C7.62802 6.88621 7.57192 6.95136 7.50451 7.00329C7.43709 7.05521 7.35978 7.09283 7.27732 7.11383C7.19486 7.13483 7.10897 7.13876 7.02493 7.1254C6.86227 7.10918 6.69799 7.12591 6.54192 7.17459C6.38586 7.22327 6.24121 7.30291 6.1166 7.40873C5.99004 7.51082 5.88507 7.63708 5.80782 7.78016C5.73055 7.92323 5.68255 8.08025 5.6666 8.24206C5.64938 8.40589 5.66492 8.57156 5.71234 8.72931C5.75976 8.88714 5.83811 9.03389 5.94281 9.16106C6.04752 9.28831 6.17649 9.39339 6.32222 9.47022C6.46793 9.54706 6.6275 9.59414 6.7916 9.60872C7.06288 9.63197 7.33448 9.56772 7.5666 9.42539C7.70805 9.33814 7.87838 9.31056 8.04014 9.34889C8.20189 9.38714 8.34178 9.48814 8.42911 9.62956C8.51644 9.77106 8.54394 9.94139 8.50569 10.1031C8.46736 10.2649 8.36636 10.4048 8.22493 10.4921C7.83843 10.7386 7.39159 10.8741 6.93327 10.8837Z" fill="#878E87"/>
<path id="Vector_4" d="M2.5 15.417C2.33491 15.4148 2.17719 15.3483 2.06044 15.2316C1.9437 15.1148 1.87716 14.9571 1.875 14.792C1.875 12.542 2.475 11.042 5.41667 11.042C5.58243 11.042 5.7414 11.1078 5.85861 11.2251C5.97582 11.3422 6.04167 11.5012 6.04167 11.667C6.04167 11.8327 5.97582 11.9917 5.85861 12.1089C5.7414 12.2262 5.58243 12.292 5.41667 12.292C3.45833 12.292 3.125 12.917 3.125 14.792C3.12284 14.9571 3.0563 15.1148 2.93956 15.2316C2.82281 15.3483 2.66509 15.4148 2.5 15.417Z" fill="#878E87"/>
</g>
</g>
</svg>
